<?xml version="1.0" encoding="utf-8"?>
<!-- Generator: Adobe Illustrator 16.0.3, SVG Export Plug-In . SVG Version: 6.00 Build 0)  -->
<!DOCTYPE svg PUBLIC "-//W3C//DTD SVG 1.1//EN" "http://www.w3.org/Graphics/SVG/1.1/DTD/svg11.dtd">
<svg version="1.1" id="Layer_1" xmlns="http://www.w3.org/2000/svg" xmlns:xlink="http://www.w3.org/1999/xlink" x="0px" y="0px"
	 width="150px" height="150px" viewBox="66.73 -15 150 150" enable-background="new 66.73 -15 150 150" xml:space="preserve">
<path fill="#3A4F5D" d="M131.73,65h-35c-2.761,0-5,2.238-5,5v35c0,2.762,2.239,5,5,5h35c2.761,0,5-2.238,5-5V70
	C136.73,67.238,134.491,65,131.73,65z M126.73,100h-25V75h25V100z M186.73,10h-35c-2.762,0-5,2.239-5,5v35c0,2.761,2.238,5,5,5h35
	c2.762,0,5-2.239,5-5V15C191.73,12.239,189.492,10,186.73,10z M181.73,45h-25V20h25V45z M186.73,65h-35c-2.762,0-5,2.238-5,5v35
	c0,2.762,2.238,5,5,5h35c2.762,0,5-2.238,5-5V70C191.73,67.238,189.492,65,186.73,65z M181.73,100h-25V75h25V100z M131.73,10h-35
	c-2.761,0-5,2.239-5,5v35c0,2.761,2.239,5,5,5h35c2.761,0,5-2.239,5-5V15C136.73,12.239,134.491,10,131.73,10z M126.73,45h-25V20h25
	V45z"/>
</svg>
