<?xml version="1.0" encoding="utf-8"?>
<!-- Generator: Adobe Illustrator 16.0.3, SVG Export Plug-In . SVG Version: 6.00 Build 0)  -->
<!DOCTYPE svg PUBLIC "-//W3C//DTD SVG 1.1//EN" "http://www.w3.org/Graphics/SVG/1.1/DTD/svg11.dtd">
<svg version="1.1" id="Layer_1" xmlns="http://www.w3.org/2000/svg" xmlns:xlink="http://www.w3.org/1999/xlink" x="0px" y="0px"
	 width="150px" height="150px" viewBox="66.73 -15 150 150" enable-background="new 66.73 -15 150 150" xml:space="preserve">
<path fill="#3A4F5D" d="M141.73,55c-2.761,0-5,2.239-5,5c0,2.762,2.239,5,5,5c2.762,0,5-2.238,5-5
	C146.73,57.239,144.492,55,141.73,55z M179.83,60l0.551-0.7c6.75-9.3,8.35-17.85,4.649-24.3s-12-9.3-23.3-8.15h-0.9
	C156.28,16.5,149.53,10,141.73,10s-14.55,6.5-19.05,17l-0.95-0.15c-11.3-1.15-19.6,1.7-23.3,8.15c-3.7,6.45-2.1,15,4.65,24.3
	l0.55,0.7l-0.55,0.7C96.33,70,94.73,78.55,98.43,85c3.3,5.5,9.65,8.4,18.3,8.4c1.55,0,3.15,0,5-0.25h0.9
	c4.55,10.35,11.3,16.85,19.1,16.85s14.55-6.5,19.05-17h0.9c1.7,0,3.3,0.25,5,0.25c8.85,0,15.35-2.9,18.5-8.4
	c3.7-6.449,2.1-15-4.65-24.3L179.83,60z M107.08,40c1.25-2.2,5-3.4,10-3.4h2.45c-0.783,3.076-1.368,6.199-1.75,9.35
	c-2.547,1.927-4.969,4.014-7.25,6.25C106.73,47.2,105.63,42.5,107.08,40z M107.08,80c-1.45-2.5,0-7.2,3.35-12.35
	c2.281,2.235,4.703,4.322,7.25,6.25c0.382,3.167,0.966,6.307,1.75,9.399C113.23,83.7,108.53,82.5,107.08,80z M141.73,20
	c2.8,0,6.15,3.3,9,9.15c-3.055,0.887-6.059,1.938-9,3.15c-2.941-1.212-5.945-2.263-9-3.15C135.58,23.3,138.93,20,141.73,20z
	 M141.73,100c-2.8,0-6.15-3.3-9-9.15c3.055-0.887,6.059-1.938,9-3.149c2.941,1.212,5.945,2.263,9,3.149
	C147.88,96.7,144.53,100,141.73,100z M156.38,68.45c-2.301,1.6-4.65,3.1-7.15,4.55s-5,2.75-7.5,3.9c-2.5-1.167-5-2.467-7.5-3.9
	c-2.5-1.45-5-2.95-7.15-4.55c-0.35-2.7-0.35-5.5-0.35-8.45s0-5.75,0.35-8.45c2.3-1.6,4.65-3.1,7.15-4.55s5-2.75,7.5-3.9
	c2.5,1.167,5,2.467,7.5,3.9c2.5,1.45,5,2.95,7.15,4.55c0,2.7,0.35,5.5,0.35,8.45S156.73,65.75,156.38,68.45z M176.38,80
	c-1.45,2.5-6.15,3.75-12.351,3.3c0.784-3.093,1.368-6.232,1.75-9.399c2.548-1.928,4.97-4.015,7.25-6.25
	C176.73,72.8,177.83,77.5,176.38,80z M173.03,52.35c-2.28-2.236-4.702-4.323-7.25-6.25c-0.382-3.151-0.966-6.274-1.75-9.35h2.45
	c5,0,8.65,1.2,10,3.4C177.83,42.35,176.73,47.2,173.03,52.35z"/>
</svg>
