<?xml version="1.0" encoding="utf-8"?>
<!-- Generator: Adobe Illustrator 16.0.3, SVG Export Plug-In . SVG Version: 6.00 Build 0)  -->
<!DOCTYPE svg PUBLIC "-//W3C//DTD SVG 1.1//EN" "http://www.w3.org/Graphics/SVG/1.1/DTD/svg11.dtd">
<svg version="1.1" id="Layer_1" xmlns="http://www.w3.org/2000/svg" xmlns:xlink="http://www.w3.org/1999/xlink" x="0px" y="0px"
	 width="150px" height="150px" viewBox="66.73 -15 150 150" enable-background="new 66.73 -15 150 150" xml:space="preserve">
<path fill="#3A4F5D" d="M189.18,23.65l-22.45-12.8c-1.547-0.893-3.453-0.893-5,0l-20,11.4l-20-11.4c-1.547-0.893-3.453-0.893-5,0
	l-22.45,12.8c-1.572,0.884-2.547,2.546-2.55,4.35v25.6c0.003,1.804,0.978,3.466,2.55,4.35l20,11.35V92
	c0.003,1.804,0.978,3.467,2.55,4.35l22.5,12.801c1.547,0.893,3.453,0.893,5,0l22.4-12.801c1.572-0.883,2.547-2.546,2.55-4.35V69.3
	l20-11.35c1.573-0.884,2.547-2.546,2.55-4.35V28C191.806,26.175,190.791,24.508,189.18,23.65z M101.73,50.7v-20l17.5-10l17.5,10v20
	l-17.5,10L101.73,50.7z M159.23,89.1l-17.5,10l-17.5-10v-20l17.5-10l17.5,10V89.1z M181.73,50.7l-17.5,10l-17.5-10v-20l17.5-10
	l17.5,10V50.7z"/>
</svg>
