<?xml version="1.0" encoding="utf-8"?>
<!-- Generator: Adobe Illustrator 16.0.3, SVG Export Plug-In . SVG Version: 6.00 Build 0)  -->
<!DOCTYPE svg PUBLIC "-//W3C//DTD SVG 1.1//EN" "http://www.w3.org/Graphics/SVG/1.1/DTD/svg11.dtd">
<svg version="1.1" id="Layer_1" xmlns="http://www.w3.org/2000/svg" xmlns:xlink="http://www.w3.org/1999/xlink" x="0px" y="0px"
	 width="441.376px" height="120px" viewBox="0 0 441.376 120" enable-background="new 0 0 441.376 120" xml:space="preserve">
<title>squadbadges</title>
<g>
	<path fill="#3A4F5D" d="M151.318,52.8l2.959-29.937h6.234l6.905,18.779l7.166-18.779h2.279l0,0l0,0h3.285l2.95,29.937h-7.305
		l-1.089-15.029L168.71,52.8h-3.955l-5.714-15.112L157.878,52.8H151.318z"/>
	<path fill="#3A4F5D" d="M215.604,51.199c-2.159,1.442-5.239,2.122-8.432,2.122c-8.198,0-15.15-4.914-15.15-15.104
		c0-10.19,6.793-15.755,15.187-15.755c2.782-0.125,5.557,0.381,8.115,1.479l-1.861,6.076c-1.601-0.804-3.364-1.227-5.155-1.237
		c-5.118,0-8.376,3.359-8.376,9.306c0,5.947,3.472,8.878,7.957,8.878c2.028,0.005,4.023-0.518,5.788-1.517L215.604,51.199z"/>
	<path fill="#3A4F5D" d="M247.709,51.199c-2.121,1.442-5.24,2.122-8.441,2.122c-8.188,0-15.148-4.914-15.148-15.104
		c0-10.19,6.793-15.755,15.195-15.755c2.785-0.144,5.566,0.347,8.133,1.433l-1.859,6.077c-1.604-0.806-3.371-1.229-5.166-1.238
		c-5.109,0-8.375,3.359-8.375,9.307c0,5.946,3.48,8.878,7.957,8.878c2.031,0.006,4.029-0.518,5.797-1.518L247.709,51.199z"/>
	<path fill="#3A4F5D" d="M257.983,22.863h7.715v24.139h10.869V52.8h-18.611L257.983,22.863z"/>
	<path fill="#3A4F5D" d="M295.84,22.658h5.582L312.375,52.8h-7.752l-1.479-4.401h-10.098l-1.479,4.401h-6.719L295.84,22.658z
		 M298.083,33.648l-3.174,9.437h6.393L298.083,33.648z"/>
	<path fill="#3A4F5D" d="M324.827,28.651h-7.584v-5.788h22.893v5.788h-7.594V52.8h-7.715V28.651z"/>
	<path fill="#3A4F5D" d="M371.72,51.199c-2.158,1.442-5.238,2.075-8.439,2.075c-8.189,0-15.15-4.913-15.15-15.104
		s6.803-15.755,15.197-15.755c2.781-0.123,5.555,0.383,8.113,1.479l-1.859,6.077c-1.602-0.804-3.365-1.228-5.156-1.238
		c-5.119,0-8.375,3.359-8.375,9.307c0,5.946,3.471,8.878,7.947,8.878c2.031,0.006,4.029-0.518,5.797-1.518L371.72,51.199z"/>
	<path fill="#3A4F5D" d="M381.996,22.863h7.713v11.669h9.475V22.863h7.715V52.8h-7.715V40.293h-9.475v12.47h-7.713V22.863z"/>
	<path fill="#3A4F5D" d="M425.193,40.768l-8.877-17.904h7.947l5.191,10.832l5.166-10.832h6.756l-8.488,17.43V52.8h-7.695V40.768z"/>
</g>
<g>
	<path fill="#3A4F5D" d="M266.079,66.939h10.236c7.67,0,14.705,5.109,14.705,15.104s-7.035,14.834-14.705,14.834h-10.236V66.939z
		 M273.793,72.727v18.352h2.057c4.281,0,7.314-2.875,7.314-9.109c0-6.236-3.033-9.242-7.314-9.242H273.793z"/>
	<path fill="#3A4F5D" d="M302.018,66.939h18.268v5.787h-10.553v5.883h9.559v5.76h-9.559v6.672h10.711v5.799h-18.426V66.939z"/>
	<path fill="#3A4F5D" d="M341.515,72.652c-1.919,0-3.481,0.596-3.481,2.318c0,1.861,3.323,2.559,6.282,3.834
		c3.275,1.441,6.635,3.723,6.635,8.756c0,6.236-4.234,9.836-11.112,9.836c-4.719,0-7.361-1.078-9.52-2.596l2.047-6.076
		c2.105,1.549,4.654,2.375,7.268,2.354c2.886,0,4.198-0.93,4.198-2.475c0-2.484-2.633-2.959-5.798-4.318
		c-2.951-1.283-6.869-3.564-6.869-8.598c0-5.584,3.723-9.232,10.507-9.232c2.953-0.09,5.873,0.635,8.441,2.094l-1.861,5.918
		C346.195,73.303,343.878,72.678,341.515,72.652z"/>
	<path fill="#3A4F5D" d="M361.708,66.939h7.715v29.938h-7.715V66.939z"/>
	<path fill="#3A4F5D" d="M394.884,97.555c-7.957,0-14.666-5.154-14.666-15.391s7.352-15.82,15.986-15.82
		c2.799-0.064,5.588,0.367,8.236,1.275l-1.861,6.076c-1.873-0.676-3.844-1.041-5.834-1.08c-4.803,0-8.637,2.875-8.637,9.475
		c0,6.234,3.201,9.305,7.119,9.305c0.871,0.004,1.74-0.078,2.596-0.242v-5.713h-3.723V79.65h11.037v15.066
		C403.343,96.113,399.722,97.555,394.884,97.555z"/>
	<path fill="#3A4F5D" d="M416.835,96.877V66.939h7.631l10.08,17.262V66.939h6.514v29.938h-6.793l-10.916-18.752v18.752H416.835z"/>
</g>
<g>
	<path fill="#04816A" d="M71.042,116.514h30.896l32.627-56.516L101.929,3.462H36.637L4.001,59.998l32.636,56.543h34.246
		C70.934,116.521,70.988,116.514,71.042,116.514z"/>
	<path fill="#3A4F5D" d="M70.883,120.002H34.646L0,59.998L34.646,0h69.274l34.647,59.998l-34.628,59.977H71.526h-0.074
		L70.883,120.002z M38.638,113.08h31.957c0.148-0.01,0.298-0.01,0.446,0h28.905l30.626-53.045L99.928,6.989h-61.29L7.993,60.035
		L38.638,113.08z"/>
</g>
<g>
	<polygon fill="#3A4F5D" points="24.661,75.613 57.631,27.518 69.683,37.633 43.756,75.613 	"/>
	<polygon fill="#52B3BA" points="46.148,75.725 70.707,38.778 82.303,48.326 63.764,75.725 	"/>
	<polygon fill="#E9EAD6" points="110.834,75.725 93.441,60.836 83.094,75.725 65.933,75.725 83.326,49.35 113.905,75.725 	"/>
</g>
<rect x="151.318" y="61.166" fill="#52B3BA" width="105.772" height="41.561"/>
<g>
	<path fill="#FFFFFF" d="M160.907,66.879h10.326c7.715,0,14.787,5.143,14.787,15.188c0,10.086-7.072,14.908-14.787,14.908h-10.326
		V66.879z M168.662,72.705v18.443h2.09c4.299,0,7.353-2.893,7.353-9.162c0-6.188-3.054-9.281-7.353-9.281H168.662z"/>
	<path fill="#FFFFFF" d="M202.455,74.955c0,1.889,3.336,2.57,6.309,3.857c3.295,1.445,6.671,3.777,6.671,8.799
		c0,6.27-4.26,9.885-11.171,9.885c-4.741,0-7.394-1.084-9.563-2.611l2.05-6.107c2.009,1.326,4.018,2.371,7.313,2.371
		c2.894,0,4.22-0.926,4.22-2.492c0-2.49-2.652-2.973-5.827-4.34c-2.973-1.285-6.911-3.576-6.911-8.639
		c0-5.625,3.737-9.281,10.568-9.281c3.978,0,6.63,1.004,8.479,2.09l-1.849,5.945c-1.406-0.883-4.099-1.809-6.791-1.809
		C204.022,72.623,202.455,73.227,202.455,74.955z"/>
	<path fill="#FFFFFF" d="M225.963,66.879h11.371c5.826,0,10.166,3.334,10.166,9.965c0,6.549-5.063,9.523-10.166,9.523h-3.697v10.607
		h-7.674V66.879z M233.637,72.744v8.037h2.613c2.369,0,3.857-1.367,3.857-4.018c0-2.613-1.488-4.02-3.857-4.02H233.637z"/>
</g>
</svg>
