<?xml version="1.0" encoding="utf-8"?>
<!-- Generator: Adobe Illustrator 16.0.3, SVG Export Plug-In . SVG Version: 6.00 Build 0)  -->
<!DOCTYPE svg PUBLIC "-//W3C//DTD SVG 1.1//EN" "http://www.w3.org/Graphics/SVG/1.1/DTD/svg11.dtd">
<svg version="1.1" id="Layer_1" xmlns="http://www.w3.org/2000/svg" xmlns:xlink="http://www.w3.org/1999/xlink" x="0px" y="0px"
	 width="150px" height="150px" viewBox="66.73 -15 150 150" enable-background="new 66.73 -15 150 150" xml:space="preserve">
<path fill="#3A4F5D" d="M181.73,40L181.73,40l-30-26.3c-5.693-5.093-14.306-5.093-20,0l-30,26.3c-3.213,2.874-5.034,6.99-5,11.3V95
	c0,8.284,6.716,15,15,15h60c8.284,0,15-6.716,15-15V51.25C186.75,46.958,184.929,42.862,181.73,40z M151.73,100h-20V75
	c0-2.762,2.239-5,5-5h10c2.762,0,5,2.238,5,5V100z M176.73,95c0,2.762-2.238,5-5,5h-10V75c0-8.284-6.716-15-15-15h-10
	c-8.284,0-15,6.716-15,15v25h-10c-2.761,0-5-2.238-5-5V51.25c0.002-1.436,0.621-2.802,1.7-3.75l30-26.25
	c1.887-1.658,4.712-1.658,6.6,0l30,26.25c1.079,0.948,1.698,2.314,1.7,3.75V95z"/>
</svg>
